<svg version="1.2" xmlns="http://www.w3.org/2000/svg" viewBox="0 0 31 28" width="31" height="28"><defs><clipPath clipPathUnits="userSpaceOnUse" id="cp1"><path d="m-663-3796h1360v5872h-1360z"/></clipPath></defs><style>.a{fill:#2c2c2c}</style><g clip-path="url(#cp1)"><path class="a" d="m18.4 27.1l-1.1-2.4c-0.4-0.8-0.1-1.7 0.7-2.1q2.6-1.1 3.9-2.9 1.6-2.3 1.7-6h-4.5c-0.8 0-1.5-0.7-1.5-1.6v-9.5c0-0.9 0.7-1.6 1.5-1.6h9.4c0.8 0 1.5 0.7 1.5 1.6v7.5q0 5.5-1 8.6-0.9 3.2-3.5 5.8-2.1 2-5.1 3.4-0.3 0.1-0.6 0.1c-0.6 0-1.2-0.3-1.4-0.9zm-17.1 0l-1.2-2.4c-0.3-0.8 0-1.7 0.8-2.1q2.6-1.1 3.9-2.9 1.6-2.3 1.7-6h-4.5c-0.9 0-1.5-0.7-1.5-1.6v-9.5c0-0.9 0.6-1.6 1.5-1.6h9.3c0.9 0 1.6 0.7 1.6 1.6v7.5q0 5.5-1 8.7-0.9 3.1-3.5 5.7-2.1 2-5.1 3.4-0.3 0.1-0.7 0.1c-0.5 0-1.1-0.3-1.3-0.9z"/></g></svg>