<svg version="1.2" xmlns="http://www.w3.org/2000/svg" viewBox="0 0 134 31" width="134" height="31"><defs><clipPath clipPathUnits="userSpaceOnUse" id="cp1"><path d="m-94-25h1360v5872h-1360z"/></clipPath><linearGradient id="P" gradientUnits="userSpaceOnUse"/><linearGradient id="g1" x1="70.3" y1="48" x2="64.6" y2="-17" href="#P"><stop stop-color="#08aeea"/><stop offset="1" stop-color="#2af598"/></linearGradient></defs><style>.a{fill:url(#g1);stroke:#636363;stroke-width:4}</style><g clip-path="url(#cp1)"><path fill-rule="evenodd" class="a" d="m12 29.2c0-4.2 7.8-14 10.5-17.5l4.3-5.4c-7.3 0.2-14.5 1.1-21.5 3.3v0.1c0.6 0.1 3.4 0.4 3.4 1.2 0 0.6-0.7 0.5-1.8 0.4-0.5-0.1-1-0.2-1.6-0.2l-2.4 0.1c-1 0-1.9 0-1.9-1.2 0-0.6 0.2-1.7 0.4-2.4 0.5-2.7 0.4-3.6 3.1-4.8 4.9-2.2 10.6-2.8 15.9-2.8 2.1 0 4.3 0.1 6.4 0.6 2.6 0.6 2.4 1.9 3.5 4.8 0.4 1-1 2.5-1.6 3.5l-9.9 15 0.1 0.1c0.4-0.2 0.9-0.1 0.9 0.5 0 0.9-1.2 2.4-1.8 3-0.7 1-2.4 3.5-3.7 3.5-1.1 0-2.3-0.6-2.3-1.8zm38-1.8c0-1.3 0.4-2.4 0.9-3.5l-0.1-0.1c-1.7 1.4-4.5 5.2-6.8 5.2-2.1 0-3.3-2.4-3.3-4.2q0-0.3 0.1-0.7c-1.6 1.5-3.3 2.2-5.7 2.2-1.8 1.8-3.9 3.1-6.6 3.1-2.2 0-4.2-2.2-4.4-6 0-3.2 1.5-5.3 3.9-7.1 2.3-1.8 5.3-3 7.9-3.1 0.9 0 2.3 0.4 2.3 1.5 0 0.7-0.5 0.9-0.9 1.2 1.2 0.3 1.5 1.2 1.5 2.4 0 1.9-0.9 3.4-1.7 5 1.9 0.4 3.1-1.2 4.4-2.2 1.1-2.7 3.2-5.1 5.1-6.3 0.6-0.4 1.2-0.5 1.9-0.5 0.6 0 2.7-0.4 2.6 0.9-0.1 0.7-1.3 1.8-1.7 2.2-1.3 1.5-1.6 1.9-3.2 3.1-1.4 0.9-2.4 1.8-2.4 3.6 0 0.2 0.1 0.6 0.4 0.6 0.7 0 3.1-1.2 5.1-3l4.1-3.7c0.9-0.8 5.1-4.8 6.1-4.8 0.4 0 0.8 0.1 1 2.3 0.1 1-1 2-1.7 2.6-1.4 1.2-4.4 4.5-4.4 6.4 0 0.7 0.4 0.9 1.1 0.9 0.9 0 2.5-0.9 3.9-1.9v-0.1c1.1-0.9 2-1.9 2.8-3.1-0.9-0.1-1.2-0.4-1.2-1.3 0-3 4.3-6 5.4-6 0.4 0 0.7 0.3 0.7 0.7 0 0.4-0.1 0.8-0.3 1.2 4-0.6 6.3-1.1 6.8-0.6 0.6 0.8 0.9 1.5 1 2.2 0 1.3-0.8 2-1.8 2.8-1.2 1-3.3 3.1-3.3 4.8 0 0.7 0.7 1.2 1.3 1.2 1.7 0 4.2-2.5 5.7-3.7 1.4-3.8 5.2-7 7.2-7 0.7 0 1.8 0.3 1.8 1.2 0 2.1-4.2 5.9-5.9 7.1-0.4 1.7 0.3 2.7 2.2 2.7 0.9 0 1.7-0.4 2.6-0.9q0 0 0 0c0-0.5 0.6-1.1 1-1.5l9.2-8.3c0-1.4 0.8-2.8 2.4-2.8 1.2 0 1.5 0.4 1.6 1.6 0.2 1.6 0.8 3 0.8 4.9 0 3.4-2.8 6-5.5 7.6 2.7 0.5 4.4-0.8 6.5-2.3l2.5-2 0.2 0.8c0.9-3.8 4.6-8.1 6.9-7.8 0.6 0.1 1.9 0.1 1.9 1 0 0.8-1.2 2.1-1.7 2.7-0.8 0.8-1.7 1.6-2.3 2.5-0.5 0.7-1.3 1.3-1.3 2.2 0 0.1 0.2 0.4 0.3 0.4 0.2 0 0.7-0.5 0.9-0.7 2-2.1 9.6-9.6 12.3-9.6 1.2 0 1.8 0.8 1.8 1.9 0 1.9-3 5.3-4 6.9l0.1 0.1 9.4-7.4c0.4-0.3 1.5-1.1 2-1.1 0.3 0 0.8 1 0.9 1.1 0.3 0.5 0.8 1.1 0.8 1.7 0 0.7-0.9 1.7-1.4 2.2-3.3 3.6-3.5 4.3-3.6 5.2 0 0.5 0.6 1.2 1.1 1.1 0.9-0.2 1.3-0.2 6.5-3.8l0.3 2c-2 1.6-8.1 6.6-10.5 6.6-1.2 0-2.1-1.3-2.1-2.5 0-2.1 2-5.1 3.1-6.8l-0.1-0.1-6.7 6.1c-1 1-2.5 2.7-4 2.7-1 0-1.8-0.8-1.8-1.8-0.1-1.2 1-3.1 3.7-7.3 0.1-0.1 0.3-0.4 0.3-0.5 0-0.2-0.2-0.3-0.3-0.3-0.5 0-1.4 1-1.7 1.3-2.2 2.3-4.6 4.8-6.6 7.3-0.4 0.5-1 1.1-1.8 1.1-2 0-2.6-3.3-2.6-4.8q0-0.2 0-0.4c-2.6 2.6-6.9 6-10.2 5.9-2.5-0.1-5.3-1.4-6.4-3.9-1.9 2-4.5 3.9-6.8 3.9-2.5 0-3.7-2.9-3.7-5q0-0.3 0.1-0.6c-2.2 2.1-5.8 5.3-7.8 5.3-1.8 0-2.9-1.6-2.9-3.2 0-2.9 2.2-5.1 3.9-7.2h-0.1l-4.4 0.9c-0.7 1.2-1.5 2.1-2.4 2.8l0.1 0.5c-2.2 2-6.7 6.9-9.8 6.9-1.6 0-2.5-1.3-2.5-2.8zm-21-6.5c-0.9 0.9-1.7 2.5-1.7 3.9 0 1.2 0.8 1.6 1.8 1.6 1.4 0 2.3-0.8 3.3-1.7-0.3-0.7-0.5-1.3-0.5-2 0-2.2 2-4.8 1.8-4.9-1.4 0.8-3.4 1.9-4.7 3.1zm59.5 1.9c1.6 0.1 2.5 1.4 3.3 2.5 2.5-1.6 3.2-2.3 3.4-4.7q-0.2-1.3-0.6-3.5zm-4.2-10.8c0-1.7 2-3.2 3.7-3.2 0.7 0 1.3 0.5 1.3 1.3 0 1.6-1.5 3.7-3.3 3.7-1.1 0-1.7-0.8-1.7-1.8z"/></g></svg>